<?xml version="1.0" standalone="no"?>
<!DOCTYPE svg PUBLIC "-//W3C//DTD SVG 20010904//EN"
 "http://www.w3.org/TR/2001/REC-SVG-20010904/DTD/svg10.dtd">
<svg version="1.0" xmlns="http://www.w3.org/2000/svg"
 width="700.000000pt" height="700.000000pt" viewBox="0 0 700.000000 700.000000"
 preserveAspectRatio="xMidYMid meet">
<metadata>
Created by potrace 1.14, written by Peter Selinger 2001-2017
</metadata>
<g transform="translate(0.000000,700.000000) scale(0.100000,-0.100000)"
fill="#000000" stroke="none">
<path d="M261 5264 c-65 -27 -61 32 -61 -946 0 -539 4 -897 10 -912 5 -14 21
-33 36 -42 25 -17 160 -18 2398 -18 1844 0 2376 3 2394 13 46 25 56 54 55 177
-1 110 0 114 21 115 11 0 103 1 203 2 l183 2 31 31 c30 30 31 34 32 129 l2 98
55 3 c145 9 275 98 338 232 l28 58 54 -12 c181 -38 340 -144 434 -289 56 -86
62 -98 84 -162 46 -134 52 -298 17 -467 -85 -408 -391 -746 -784 -865 -53 -16
-112 -32 -131 -35 -19 -3 -46 -9 -60 -12 -14 -4 -580 -7 -1258 -8 l-1232 -2
-24 40 c-55 93 -136 136 -265 139 l-90 2 -56 63 c-65 71 -161 132 -250 157
-54 16 -121 18 -652 19 -326 1 -606 -2 -622 -7 -27 -7 -74 -63 -70 -84 1 -4 1
-24 0 -43 l-1 -35 -206 0 c-227 1 -253 -5 -274 -56 -9 -21 -13 -111 -12 -308
0 -309 2 -320 65 -340 18 -6 119 -10 226 -10 106 0 195 -1 196 -3 2 -2 6 -25
8 -51 7 -59 27 -92 64 -104 16 -5 277 -9 623 -8 541 1 600 3 655 19 114 34
210 99 275 184 l35 47 91 1 c75 2 99 6 140 27 53 27 117 90 129 126 3 12 9 21
13 22 4 1 561 2 1237 4 1230 2 1285 3 1410 36 22 6 47 12 55 14 30 6 117 38
185 67 341 149 625 465 739 823 27 85 29 95 50 218 54 316 -37 619 -249 830
-137 138 -289 216 -497 257 -55 11 -57 12 -72 57 -26 76 -91 151 -171 198 -34
21 -144 56 -163 54 -4 -1 -21 -1 -38 0 l-30 1 -2 88 c-2 168 -9 172 -275 172
l-193 0 -2 120 c-1 123 -11 156 -52 176 -8 4 -1081 8 -2383 9 -1814 1 -2374
-2 -2396 -11z m1081 -460 c52 -27 52 -29 53 -464 1 -223 -3 -417 -8 -433 -5
-15 -22 -36 -37 -47 -27 -19 -44 -20 -345 -20 -346 0 -361 2 -384 57 -8 21
-11 144 -9 447 l3 418 31 27 31 28 319 0 c254 1 325 -2 346 -13z m1086 4 c62
-19 63 -23 63 -484 0 -282 -4 -421 -12 -435 -23 -45 -58 -49 -392 -49 -299 0
-316 1 -340 20 -14 11 -29 32 -34 47 -10 34 -10 819 1 851 4 13 21 32 38 42
27 16 58 18 336 18 179 0 321 -4 340 -10z m1120 -11 c12 -11 25 -31 30 -45 5
-15 9 -210 9 -434 l0 -407 -27 -33 -28 -33 -323 -3 c-362 -4 -378 -1 -399 62
-6 19 -9 184 -7 442 2 396 3 413 22 434 11 12 29 26 40 30 11 4 165 7 341 6
298 -1 323 -2 342 -19z m1074 11 c61 -23 61 -22 61 -467 0 -223 -4 -418 -8
-434 -4 -15 -20 -36 -35 -47 -27 -19 -45 -20 -345 -20 -339 0 -360 3 -386 52
-8 16 -12 139 -12 436 1 451 1 454 57 477 37 16 628 19 668 3z"/>
</g>
</svg>
